<?xml version="1.0" ?><svg style="enable-background:new 0 0 48 48;" version="1.1" viewBox="0 0 48 48" xml:space="preserve" xmlns="http://www.w3.org/2000/svg" xmlns:xlink="http://www.w3.org/1999/xlink"><style type="text/css">
	.st0{display:none;}
	.st1{fill:#929292;stroke:#929292;stroke-width:0.7;stroke-linecap:round;stroke-linejoin:round;stroke-miterlimit:10;}
	.st2{fill:#929292;}
</style><g class="st0" id="Padding__x26__Artboard"/><g id="Icons"><g><g><path class="st1" d="M26.93,16.2681v2.31c0,0.29-0.15,0.57-0.4,0.72c-0.14,0.09-0.3,0.13-0.45,0.13c-0.13,0-0.26-0.03-0.38-0.09     l-4.04058-3.22c-0.29-0.14-0.47-0.44-0.47-0.76c0-0.32,0.18-0.61,0.47-0.76l4.04058-3.22c0.26-0.13,0.58-0.11,0.83,0.04     c0.25,0.16,0.4,0.43,0.4,0.72v2.36"/></g><path class="st1" d="M26.93,16.2681c3.93,1.25,6.67,4.95,6.67,9.14c0,5.3-4.31,9.6-9.6,9.6s-9.6-4.3-9.6-9.6    c0-2.45961,0.95179-4.80972,2.62346-6.57879c0.2409-0.25494,0.22991-0.65336-0.04237-0.87447l-0.40043-0.32516    c-0.2381-0.19334-0.59162-0.17924-0.80203,0.04393C13.82325,19.74758,12.7,22.51151,12.7,25.4081c0,6.24,5.07,11.3,11.3,11.3    s11.3-5.06,11.3-11.3c0-5.12-3.48-9.6-8.37-10.91"/></g></g></svg>